<svg width="19" height="21" viewBox="0 0 19 21" fill="none" xmlns="http://www.w3.org/2000/svg">
<path d="M17.1571 0H5.32461C4.34603 0 3.54974 0.796291 3.54974 1.77487V10.6492H0.591623C0.265176 10.6492 0 10.9136 0 11.2408V18.3403C0 19.6453 1.06147 20.7068 2.36649 20.7068C2.57541 20.7068 2.77402 20.6706 2.96762 20.6199C3.16412 20.6719 3.35746 20.7068 3.54974 20.7068H16.5654C17.8705 20.7068 18.9319 19.6453 18.9319 18.3403V1.77487C18.9319 0.796291 18.1356 0 17.1571 0ZM1.18325 18.3403V11.8325H3.54974V18.3403C3.54974 18.4534 3.52914 18.5632 3.49771 18.6686C3.49242 18.6868 3.48635 18.7059 3.48054 18.7236C3.36459 19.0542 3.10549 19.3271 2.76004 19.4493C2.75714 19.4504 2.75423 19.4528 2.75106 19.4541C2.62983 19.4958 2.502 19.5235 2.36651 19.5235C1.71388 19.5235 1.18326 18.9929 1.18326 18.3403L1.18325 18.3403ZM17.7487 18.3403C17.7487 18.9929 17.2181 19.5236 16.5654 19.5236H4.41182C4.44615 19.4649 4.47336 19.4029 4.50294 19.3413C4.52354 19.2975 4.54493 19.255 4.56263 19.2093C4.60595 19.1004 4.63949 18.9893 4.6667 18.8749C4.67621 18.8358 4.68386 18.7962 4.691 18.7566C4.71582 18.6208 4.73299 18.4816 4.73299 18.3403V1.77488C4.73299 1.44896 4.99869 1.18325 5.32461 1.18325H17.1571C17.4835 1.18325 17.7487 1.44896 17.7487 1.77488L17.7487 18.3403Z" fill="white"/>
<path d="M15.3822 5.32463H8.28272C7.95628 5.32463 7.6911 5.05946 7.6911 4.73301C7.6911 4.40656 7.95628 4.14139 8.28272 4.14139H15.3822C15.7094 4.14139 15.9738 4.40656 15.9738 4.73301C15.9738 5.05946 15.7094 5.32463 15.3822 5.32463Z" fill="white"/>
<path d="M15.3822 8.2827H8.28272C7.95628 8.2827 7.6911 8.01753 7.6911 7.69108C7.6911 7.36463 7.95628 7.09946 8.28272 7.09946H15.3822C15.7094 7.09946 15.9738 7.36463 15.9738 7.69108C15.9738 8.01753 15.7094 8.2827 15.3822 8.2827Z" fill="white"/>
<path d="M15.3822 11.2408H8.28272C7.95628 11.2408 7.6911 10.9764 7.6911 10.6492C7.6911 10.3228 7.95628 10.0576 8.28272 10.0576H15.3822C15.7094 10.0576 15.9738 10.3228 15.9738 10.6492C15.9738 10.9764 15.7094 11.2408 15.3822 11.2408Z" fill="white"/>
<path d="M15.3822 14.1989H8.28272C7.95628 14.1989 7.6911 13.9345 7.6911 13.6073C7.6911 13.2801 7.95628 13.0157 8.28272 13.0157H15.3822C15.7094 13.0157 15.9738 13.2801 15.9738 13.6073C15.9738 13.9345 15.7094 14.1989 15.3822 14.1989Z" fill="white"/>
<path d="M15.3822 17.1571H8.28272C7.95628 17.1571 7.6911 16.8927 7.6911 16.5654C7.6911 16.2382 7.95628 15.9738 8.28272 15.9738H15.3822C15.7094 15.9738 15.9738 16.2382 15.9738 16.5654C15.9738 16.8927 15.7094 17.1571 15.3822 17.1571Z" fill="white"/>
</svg>
